<svg preserveAspectRatio="none" width="100%" height="100%" overflow="visible" style="display: block;" viewBox="0 0 27.4531 27.4531" fill="none" xmlns="http://www.w3.org/2000/svg">
<g id="Group 18">
<path id="Rectangle 17" d="M10.4474 14.7435C10.4474 10.1115 14.2023 6.3566 18.8343 6.3566V6.3566C23.4663 6.3566 27.2212 10.1115 27.2212 14.7435V14.7435C27.2212 19.3754 23.4663 23.1304 18.8343 23.1304V23.1304C14.2023 23.1304 10.4474 19.3754 10.4474 14.7435V14.7435Z" fill="url(#paint0_linear_0_25)"/>
<path id="Union" d="M13.7246 0C14.0372 3.86061e-05 14.3425 0.0897666 14.6045 0.256836L14.7139 0.333008L14.8164 0.417969C15.0147 0.595629 15.1674 0.818669 15.2598 1.06836L15.3008 1.19531L15.3057 1.21484L17.3184 9.02246C17.3873 9.28982 17.5264 9.53425 17.7217 9.72949C17.9168 9.92451 18.1606 10.0638 18.4277 10.1328L26.2354 12.1445C26.2408 12.1459 26.2466 12.1479 26.252 12.1494C26.5539 12.2328 26.8249 12.4004 27.0332 12.6318L27.1182 12.7354L27.1953 12.8447C27.3631 13.1071 27.4531 13.4132 27.4531 13.7266C27.4531 14.0846 27.335 14.4329 27.1182 14.7178C26.9013 15.0025 26.597 15.2084 26.252 15.3037C26.2466 15.3052 26.2407 15.3072 26.2354 15.3086L18.4277 17.3203C18.1607 17.3893 17.9168 17.5287 17.7217 17.7236C17.5265 17.9188 17.3874 18.1634 17.3184 18.4307L15.3047 26.2383C15.303 26.2447 15.3016 26.2514 15.2998 26.2578C15.2036 26.6015 14.9971 26.9043 14.7129 27.1201C14.4285 27.3359 14.0806 27.4531 13.7236 27.4531C13.3665 27.4531 13.0189 27.3359 12.7344 27.1201C12.45 26.9043 12.2437 26.6016 12.1475 26.2578C12.1456 26.2512 12.1443 26.2439 12.1426 26.2373L10.1309 18.4307L10.0654 18.2344C9.98799 18.044 9.87288 17.87 9.72656 17.7236C9.53145 17.5286 9.28761 17.3893 9.02051 17.3203L1.21289 15.3066C1.20514 15.3046 1.19715 15.303 1.18945 15.3008C0.846941 15.2036 0.545725 14.9969 0.331055 14.7129C0.143213 14.4643 0.0310231 14.1681 0.00585938 13.8594L0 13.7266L0.00585938 13.5938C0.0310147 13.285 0.143237 12.9888 0.331055 12.7402L0.415039 12.6367C0.621196 12.4057 0.889876 12.2374 1.18945 12.1523L1.21289 12.1465L9.02051 10.1318C9.28755 10.0629 9.53143 9.9234 9.72656 9.72852C9.92162 9.53353 10.0617 9.28946 10.1309 9.02246L12.1436 1.21484C12.1452 1.20836 12.1476 1.20176 12.1494 1.19531C12.2457 0.851542 12.4519 0.548768 12.7363 0.333008L12.8457 0.256836C13.1076 0.0900099 13.4123 4.35537e-05 13.7246 0ZM12.0674 9.52246C11.9089 10.1354 11.5884 10.695 11.1406 11.1426C10.6927 11.5902 10.1327 11.9102 9.51953 12.0684L3.09375 13.7266L9.51953 15.3838C10.1329 15.5421 10.6937 15.8616 11.1416 16.3096C11.5333 16.7014 11.8267 17.1792 12 17.7031L12.0674 17.9307L13.7236 24.3584L15.3809 17.9307C15.5391 17.3173 15.8597 16.7575 16.3076 16.3096C16.7555 15.8618 17.3154 15.542 17.9287 15.3838L24.3584 13.7256L17.9287 12.0693C17.3154 11.9111 16.7555 11.5914 16.3076 11.1436C15.8597 10.6956 15.5391 10.1358 15.3809 9.52246V9.52148L13.7236 3.09375L12.0674 9.52246ZM3.54297 19.0898C4.09525 19.0898 4.54297 19.5376 4.54297 20.0898V20.3623H4.81543C5.36771 20.3623 5.81543 20.81 5.81543 21.3623C5.81526 21.9144 5.36761 22.3623 4.81543 22.3623H4.54297V22.6348C4.54271 23.1868 4.09509 23.6348 3.54297 23.6348C2.99093 23.6347 2.54323 23.1868 2.54297 22.6348V22.3623H2.27051C1.71835 22.3623 1.27068 21.9144 1.27051 21.3623C1.27051 20.81 1.71824 20.3623 2.27051 20.3623H2.54297V20.0898C2.54297 19.5376 2.99077 19.0899 3.54297 19.0898ZM23.9053 1.27246C24.4573 1.27261 24.9051 1.72041 24.9053 2.27246V3.81836H26.4502C27.0023 3.81856 27.4502 4.2662 27.4502 4.81836C27.45 5.37036 27.0022 5.81816 26.4502 5.81836H24.9053V7.36328C24.9051 7.9153 24.4573 8.36313 23.9053 8.36328C23.3531 8.36328 22.9055 7.9154 22.9053 7.36328V5.81836H21.3594C20.8074 5.81815 20.3596 5.37035 20.3594 4.81836C20.3594 4.2662 20.8073 3.81857 21.3594 3.81836H22.9053V2.27246C22.9054 1.72032 23.3531 1.27246 23.9053 1.27246Z" fill="black"/>
</g>
<defs>
<linearGradient id="paint0_linear_0_25" x1="18.8343" y1="6.3566" x2="18.8343" y2="23.1304" gradientUnits="userSpaceOnUse">
<stop stop-color="#6FF4C5"/>
<stop offset="1" stop-color="white"/>
</linearGradient>
</defs>
</svg>
