<svg preserveAspectRatio="none" width="100%" height="100%" overflow="visible" style="display: block;" viewBox="0 0 27.4004 24.8545" fill="none" xmlns="http://www.w3.org/2000/svg">
<g id="Group 18">
<path id="Rectangle 17" d="M10.422 13.7162C10.422 9.0842 14.177 5.32926 18.8089 5.32926V5.32926C23.4409 5.32926 27.1958 9.0842 27.1958 13.7162V13.7162C27.1958 18.3481 23.4409 22.103 18.8089 22.103V22.103C14.177 22.103 10.422 18.3481 10.422 13.7162V13.7162Z" fill="url(#paint0_linear_0_20)"/>
<path id="Subtract" d="M25.1543 0C26.3944 0 27.4004 1.00596 27.4004 2.24609V6.06348C27.4004 7.22515 26.5177 8.17993 25.3867 8.2959L25.1387 8.30957L24.8545 8.32422V21.3369L24.8496 21.5117C24.8063 22.381 24.4426 23.2058 23.8242 23.8242C23.1645 24.4839 22.2699 24.8544 21.3369 24.8545H6.06348C5.13052 24.8544 4.23587 24.4839 3.57617 23.8242C2.91647 23.1645 2.54599 22.2699 2.5459 21.3369V8.32422L2.26172 8.30957L2.0127 8.2959C0.882228 8.17948 0 7.22481 0 6.06348V2.24609C0 1.00596 1.00596 0 2.24609 0H25.1543ZM4.49121 8.30957V21.3369C4.49133 21.7541 4.65746 22.1536 4.95215 22.4482C5.24684 22.7429 5.64631 22.9091 6.06348 22.9092H21.3369C21.7541 22.9091 22.1536 22.7429 22.4482 22.4482C22.7429 22.1536 22.9091 21.7541 22.9092 21.3369V8.30957H4.49121ZM16.2461 11.4541L16.3457 11.459C16.8358 11.5091 17.2188 11.9241 17.2188 12.4277L17.2139 12.5273C17.1639 13.0175 16.7495 13.4002 16.2461 13.4004H11.1543C10.6173 13.4002 10.1818 12.9646 10.1816 12.4277L10.1865 12.3281C10.2364 11.8376 10.651 11.4543 11.1543 11.4541H16.2461ZM1.94629 1.94629V6.36328H25.4541V1.94629H1.94629Z" fill="black"/>
</g>
<defs>
<linearGradient id="paint0_linear_0_20" x1="18.8089" y1="5.32926" x2="18.8089" y2="22.103" gradientUnits="userSpaceOnUse">
<stop stop-color="#6FF4C5"/>
<stop offset="1" stop-color="white"/>
</linearGradient>
</defs>
</svg>
