<svg preserveAspectRatio="none" width="100%" height="100%" overflow="visible" style="display: block;" viewBox="0 0 24.9668 27.4551" fill="none" xmlns="http://www.w3.org/2000/svg">
<g id="Group 18">
<path id="Rectangle 17" d="M8.19301 14.5267C8.19301 9.89475 11.948 6.13981 16.5799 6.13981V6.13981C21.2119 6.13981 24.9668 9.89475 24.9668 14.5267V14.5267C24.9668 19.1587 21.2119 22.9136 16.5799 22.9136V22.9136C11.948 22.9136 8.19301 19.1587 8.19301 14.5267V14.5267Z" fill="url(#paint0_linear_0_7)"/>
<path id="Union" d="M17.5459 0C18.098 9.58125e-05 18.5458 0.447897 18.5459 1V2.5459H21.3633C23.3214 2.5459 24.9092 4.1337 24.9092 6.0918V23.9092C24.9091 25.8672 23.3213 27.4551 21.3633 27.4551H3.5459C1.58798 27.4549 9.60059e-05 25.8671 0 23.9092V6.0918C0 4.13379 1.58792 2.54604 3.5459 2.5459H6.36426V1C6.3644 0.447838 6.81206 0 7.36426 0C7.91629 0.000191858 8.36411 0.447956 8.36426 1V2.5459H16.5459V1C16.546 0.447838 16.9937 0 17.5459 0ZM2 23.9092C2.0001 24.7625 2.69255 25.4549 3.5459 25.4551H21.3633C22.2168 25.4551 22.9091 24.7626 22.9092 23.9092V12.1816H2V23.9092ZM15.5664 15.5664C15.9569 15.1761 16.59 15.1759 16.9805 15.5664C17.3705 15.9569 17.3707 16.5901 16.9805 16.9805L11.8896 22.0713C11.4992 22.4615 10.8651 22.4615 10.4746 22.0713L7.92969 19.5264C7.53922 19.1359 7.53934 18.5019 7.92969 18.1113C8.32014 17.7212 8.95329 17.7212 9.34375 18.1113L11.1816 19.9492L15.5664 15.5664ZM3.5459 4.5459C2.69249 4.54604 2 5.23835 2 6.0918V10.1816H22.9092V6.0918C22.9092 5.23827 22.2168 4.5459 21.3633 4.5459H18.5459V6.09082C18.5459 6.64305 18.0981 7.09072 17.5459 7.09082C16.9936 7.09082 16.5459 6.64311 16.5459 6.09082V4.5459H8.36426V6.09082C8.36426 6.64299 7.91638 7.09063 7.36426 7.09082C6.81197 7.09082 6.36426 6.64311 6.36426 6.09082V4.5459H3.5459Z" fill="black"/>
</g>
<defs>
<linearGradient id="paint0_linear_0_7" x1="16.5799" y1="6.13981" x2="16.5799" y2="22.9136" gradientUnits="userSpaceOnUse">
<stop stop-color="#6FF4C5"/>
<stop offset="1" stop-color="white"/>
</linearGradient>
</defs>
</svg>
