<svg preserveAspectRatio="none" width="100%" height="100%" overflow="visible" style="display: block;" viewBox="0 0 33.3333 34.4444" fill="none" xmlns="http://www.w3.org/2000/svg">
<g id="&#230;&#136;&#191;&#229;&#156;&#176;&#228;&#186;&#167;">
<path id="&#232;&#183;&#175;&#229;&#190;&#132;" fill-rule="evenodd" clip-rule="evenodd" d="M15.6518 34.4444H30.3511C31.9977 34.4433 33.3322 33.1049 33.3333 31.4535V13.2474C33.3329 11.874 32.4 10.6775 31.0713 10.3459L19.3521 7.41316C18.4622 7.19091 17.5199 7.39193 16.7973 7.95818C16.0746 8.52442 15.6521 9.39282 15.6518 10.3126V34.4444Z" fill="#FFC069"/>
<path id="&#232;&#183;&#175;&#229;&#190;&#132;_2" fill-rule="evenodd" clip-rule="evenodd" d="M22.465 34.4444H3.78741C1.69568 34.4444 0 32.7438 0 30.6459V7.52971C0.000635029 5.78669 1.18397 4.26776 2.87013 3.84562L17.7583 0.113646C18.8911 -0.170645 20.0913 0.0850421 21.0111 0.806601C21.9308 1.52816 22.4673 2.63491 22.465 3.80607V34.4444Z" fill="url(#paint0_linear_0_59)"/>
<path id="&#229;&#189;&#162;&#231;&#138;&#182;&#231;&#187;&#147;&#229;&#144;&#136;" d="M11.336 7.56406C12.2565 7.56412 13.0029 8.30648 13.003 9.22226V11.4811H15.2647C16.1815 11.4812 16.9249 12.2275 16.9249 13.1471C16.9246 14.0664 16.1813 14.8119 15.2647 14.8121H13.003V17.0709C13.0029 17.9867 12.2566 18.729 11.336 18.7291C10.4154 18.7291 9.66907 17.9867 9.669 17.0709V14.8121H7.40728C6.49055 14.8121 5.74737 14.0665 5.74713 13.1471C5.74713 12.2275 6.4904 11.4811 7.40728 11.4811H9.669V9.22226C9.6691 8.30645 10.4154 7.56406 11.336 7.56406Z" fill="white"/>
<path id="&#229;&#189;&#162;&#231;&#138;&#182;&#231;&#187;&#147;&#229;&#144;&#136;_2" d="M13.99 27.165C14.4834 27.165 14.8923 27.574 14.8923 28.0683C14.8923 28.5625 14.5007 28.9714 14.0075 28.9717H8.62961C8.13639 28.9714 7.72829 28.5625 7.72824 28.0683C7.72824 27.5741 8.13636 27.1653 8.62961 27.165H13.99ZM13.99 22.0508C14.4834 22.0508 14.8922 22.4598 14.8923 22.9541C14.8923 23.4483 14.5008 23.8571 14.0075 23.8574H8.62961C8.13636 23.8571 7.72824 23.4483 7.72824 22.9541C7.72833 22.46 8.13641 22.051 8.62961 22.0508H13.99Z" fill="white"/>
</g>
<defs>
<clipPath id="bgblur_0_0_59_clip_path" transform="translate(-4.13732 -18.4598)"><path d="M13.99 27.165C14.4834 27.165 14.8923 27.574 14.8923 28.0683C14.8923 28.5625 14.5007 28.9714 14.0075 28.9717H8.62961C8.13639 28.9714 7.72829 28.5625 7.72824 28.0683C7.72824 27.5741 8.13636 27.1653 8.62961 27.165H13.99ZM13.99 22.0508C14.4834 22.0508 14.8922 22.4598 14.8923 22.9541C14.8923 23.4483 14.5008 23.8571 14.0075 23.8574H8.62961C8.13636 23.8571 7.72824 23.4483 7.72824 22.9541C7.72833 22.46 8.13641 22.051 8.62961 22.0508H13.99Z"/>
</clipPath><linearGradient id="paint0_linear_0_59" x1="-7.23683" y1="12.0609" x2="18.367" y2="35.9061" gradientUnits="userSpaceOnUse">
<stop stop-color="#FFC042"/>
<stop offset="1" stop-color="#FA7414"/>
</linearGradient>
</defs>
</svg>
