<svg preserveAspectRatio="none" width="100%" height="100%" overflow="visible" style="display: block;" viewBox="0 0 30 26.9999" fill="none" xmlns="http://www.w3.org/2000/svg">
<g id="Group 18">
<path id="Rectangle 17" d="M7.67773 15.6847C7.67773 11.0528 11.4327 7.29785 16.0646 7.29785V7.29785C20.6966 7.29785 24.4515 11.0528 24.4515 15.6847V15.6847C24.4515 20.3167 20.6966 24.0716 16.0646 24.0716V24.0716C11.4327 24.0716 7.67773 20.3167 7.67773 15.6847V15.6847Z" fill="url(#paint0_linear_0_38)"/>
<path id="Vector (Stroke)" d="M28 8.63867C27.9999 6.88059 27.2956 5.19287 26.04 3.94727C24.7842 2.70148 23.0792 2 21.2998 2C20.1672 2.00002 19.2592 2.15853 18.4102 2.52539C17.5548 2.89496 16.6967 3.50258 15.7041 4.4873C15.3142 4.87408 14.6858 4.87408 14.2959 4.4873C13.3033 3.50258 12.4452 2.89496 11.5898 2.52539C10.7408 2.15853 9.83277 2.00002 8.7002 2C6.92079 2 5.21583 2.70148 3.95996 3.94727C2.70439 5.19287 2.00006 6.88059 2 8.63867C2 11.2057 3.57881 13.2735 5.50293 15.1777L5.89258 15.5557L5.9043 15.5674L15 24.5908L24.0957 15.5674L24.1025 15.5605C26.192 13.5294 28 11.362 28 8.63867ZM30 8.63867C30 12.2765 27.5796 14.9707 25.4971 16.9951L25.4961 16.9941L15.7041 26.71C15.3143 27.0966 14.6857 27.0966 14.2959 26.71L4.50781 16.999C2.40342 14.9809 0 12.2893 0 8.63867C5.77935e-05 6.34501 0.918426 4.14677 2.55078 2.52734C4.18295 0.90813 6.39537 0 8.7002 0C10.0313 1.84539e-05 11.2231 0.188446 12.3828 0.689453C13.2905 1.08164 14.1396 1.65013 15 2.40918C15.8604 1.65013 16.7095 1.08164 17.6172 0.689453C18.7769 0.188445 19.9687 1.83639e-05 21.2998 0C23.6046 0 25.8171 0.90813 27.4492 2.52734C29.0816 4.14677 29.9999 6.34501 30 8.63867Z" fill="#181818"/>
</g>
<defs>
<linearGradient id="paint0_linear_0_38" x1="16.0646" y1="7.29785" x2="16.0646" y2="24.0716" gradientUnits="userSpaceOnUse">
<stop stop-color="#6FF4C5"/>
<stop offset="1" stop-color="white"/>
</linearGradient>
</defs>
</svg>
