<svg preserveAspectRatio="none" width="100%" height="100%" overflow="visible" style="display: block;" viewBox="0 0 18.9785 20.8332" fill="none" xmlns="http://www.w3.org/2000/svg">
<g id="&#229;&#164;&#150;&#229;&#139;&#164;&#230;&#137;&#147;&#229;&#141;&#161; (1)">
<path id="&#229;&#189;&#162;&#231;&#138;&#182;&#231;&#187;&#147;&#229;&#144;&#136;" fill-rule="evenodd" clip-rule="evenodd" d="M4.58056 15.0685H3.16806L0.231757 18.9802C0.10014 19.1555 0.0214232 19.3641 0.00379229 19.5813L1.41375e-09 19.6749C-3.12522e-05 20.3141 0.518132 20.8324 1.15735 20.8324L17.821 20.8332C18.0716 20.8332 18.3155 20.7519 18.5159 20.6014C19.0271 20.2176 19.1304 19.4921 18.7466 18.9809L15.8111 15.0708H14.3977L14.3135 15.1833C13.3938 16.4012 12.5526 17.3941 11.3174 18.7757L10.739 19.4199C10.6779 19.4888 10.6291 19.5448 10.5893 19.5915L10.5008 19.6988C10.2579 20.0035 9.885 20.1818 9.48852 20.1832C9.09336 20.182 8.72026 20.0036 8.47682 19.6979L8.39769 19.6013C8.31487 19.5037 8.17947 19.3517 7.86993 19.0063C6.61117 17.6054 5.7444 16.5943 4.83483 15.4043L4.58056 15.0685ZM9.48997 0C13.6422 0.0040154 17.0099 3.26873 17.0137 7.30088C17.0137 8.34606 16.6637 9.53247 16.014 10.841C15.4344 12.0082 14.6325 13.242 13.6506 14.5318C13.0999 15.2551 12.527 15.9527 11.8995 16.6771L11.2701 17.3912L10.4497 18.3175L10.3942 18.3836C10.1776 18.6572 9.8434 18.817 9.48974 18.817C9.16556 18.817 8.85773 18.6827 8.64162 18.4493L8.46744 18.2458C8.37276 18.1375 8.23431 17.9812 8.08759 17.8161L7.39832 17.0419C6.64399 16.1849 5.97118 15.376 5.32872 14.5321C4.34667 13.2423 3.54459 12.0083 2.96494 10.841C2.31519 9.53248 1.96519 8.34607 1.96519 7.30062C1.9696 3.31675 5.25767 0.0821564 9.34155 0.00153631L9.48997 0ZM9.49048 3.77628C7.77915 3.77619 6.39461 5.11804 6.39442 6.76978C6.39423 8.42152 7.77846 9.76366 9.48978 9.76394C10.3125 9.76408 11.1011 9.44756 11.6818 8.88472C12.2611 8.32325 12.5862 7.56268 12.5862 6.77011C12.5862 5.11837 11.2018 3.77638 9.49048 3.77628Z" fill="white"/>
</g>
</svg>
