<svg preserveAspectRatio="none" width="100%" height="100%" overflow="visible" style="display: block;" viewBox="0 0 28.8166 28.6299" fill="none" xmlns="http://www.w3.org/2000/svg">
<g id="Group 18">
<path id="Rectangle 17" d="M0.000141144 8.38705C0.000141144 3.7551 3.75508 0.00015831 8.38703 0.00015831V0.00015831C13.019 0.00015831 16.7739 3.7551 16.7739 8.38705V8.38705C16.7739 13.019 13.019 16.7739 8.38703 16.7739V16.7739C3.75508 16.7739 0.000141144 13.019 0.000141144 8.38705V8.38705Z" fill="url(#paint0_linear_0_33)"/>
<path id="Union" d="M15.3179 1.17571C16.0686 1.18501 16.8081 1.36423 17.48 1.69915C18.1517 2.03406 18.7395 2.51657 19.1987 3.11028C19.658 3.70423 19.9772 4.39524 20.1323 5.12981C20.287 5.86278 20.274 6.62114 20.0952 7.34856L20.0962 7.34954L19.1226 11.3574H25.271C25.8212 11.3574 26.3647 11.4854 26.8569 11.7314C27.3491 11.9774 27.7777 12.3352 28.1079 12.7753C28.438 13.2155 28.6608 13.7272 28.7593 14.2685C28.8454 14.7422 28.8344 15.2283 28.7271 15.6962L28.6753 15.8954L25.7095 26.0771C25.4947 26.8135 25.0467 27.4606 24.4331 27.9208C23.8195 28.381 23.0732 28.6297 22.3062 28.6298H5.12451C4.18429 28.6297 3.28154 28.2566 2.6167 27.5917C1.95214 26.9269 1.57866 26.0249 1.57861 25.0849V14.9033C1.5787 13.9633 1.95214 13.0612 2.6167 12.3964C3.28153 11.7316 4.18431 11.3574 5.12451 11.3574H8.63623C8.9236 11.3572 9.20544 11.2773 9.44971 11.1259C9.69397 10.9744 9.89109 10.7573 10.019 10.4999L10.021 10.497L14.4116 1.72845C14.5831 1.38623 14.9352 1.17121 15.3179 1.17571ZM11.8091 11.3925L11.8081 11.3915C11.5146 11.9812 11.0632 12.478 10.5034 12.8251C10.3245 12.9361 10.1369 13.0304 9.94287 13.1074V26.6298H22.3062C22.6403 26.6297 22.9655 26.5217 23.2329 26.3212C23.5004 26.1206 23.6959 25.8385 23.7896 25.5175L26.7544 15.3359H26.7554C26.8225 15.1057 26.8343 14.8628 26.7915 14.6269C26.7486 14.391 26.6512 14.1674 26.5073 13.9755C26.3634 13.7838 26.1768 13.6276 25.9624 13.5204C25.7479 13.4133 25.5108 13.3574 25.271 13.3574H17.8511C17.5445 13.3572 17.2544 13.2165 17.0649 12.9755C16.8757 12.7346 16.8072 12.4198 16.8794 12.122L18.1519 6.87786L18.1528 6.87395C18.2605 6.43771 18.269 5.98254 18.1763 5.5429C18.0834 5.10318 17.8916 4.68946 17.6167 4.33391C17.3418 3.97849 16.9895 3.68968 16.5874 3.48919C16.3649 3.37829 16.1297 3.2964 15.8882 3.24407L11.8091 11.3925ZM5.12451 13.3574C4.71478 13.3574 4.32149 13.5208 4.03174 13.8105C3.74199 14.1002 3.5787 14.4935 3.57861 14.9033V25.0849C3.57866 25.4946 3.74214 25.8879 4.03174 26.1777C4.32147 26.4672 4.71488 26.6297 5.12451 26.6298H7.94287V13.3574H5.12451Z" fill="#181818"/>
</g>
<defs>
<linearGradient id="paint0_linear_0_33" x1="8.38703" y1="0.00015831" x2="8.38703" y2="16.7739" gradientUnits="userSpaceOnUse">
<stop stop-color="#6FF4C5"/>
<stop offset="1" stop-color="white"/>
</linearGradient>
</defs>
</svg>
