<svg xmlns="http://www.w3.org/2000/svg" width="420" height="318" viewBox="0 0 420 318" fill="none">
  <defs>
    <filter id="shadow" x="34" y="36" width="352" height="252" filterUnits="userSpaceOnUse">
      <feDropShadow dx="0" dy="12" stdDeviation="12" flood-color="#FF6B4A" flood-opacity=".18"/>
    </filter>
  </defs>
  <circle cx="337" cy="57" r="31" fill="#FFC53D"/>
  <path d="M337 10v18M337 86v18M290 57h18M366 57h18M304 24l13 13M357 77l13 13M370 24l-13 13M317 77l-13 13" stroke="#FF9F1C" stroke-width="8" stroke-linecap="round"/>
  <rect x="58" y="60" width="304" height="204" rx="38" fill="#FFF1E8" filter="url(#shadow)"/>
  <path d="M99 210c35-65 70-18 101-62 28-39 59-32 104-4" stroke="#20C997" stroke-width="13" stroke-linecap="round" stroke-dasharray="2 24"/>
  <path d="M298 112c-24 0-43 19-43 43 0 31 43 70 43 70s43-39 43-70c0-24-19-43-43-43Z" fill="#FF6B4A"/>
  <circle cx="298" cy="154" r="16" fill="#FFF"/>
  <circle cx="117" cy="185" r="30" fill="#FFC53D"/>
  <circle cx="117" cy="176" r="10" fill="#6B4D34"/>
  <path d="M98 209c3-15 11-23 19-23 10 0 17 8 20 23" fill="#FF6B4A"/>
  <circle cx="184" cy="118" r="29" fill="#20C997"/>
  <circle cx="184" cy="109" r="10" fill="#6B4D34"/>
  <path d="M165 142c3-15 11-23 19-23 10 0 17 8 20 23" fill="#5067E8"/>
  <circle cx="245" cy="205" r="28" fill="#5067E8"/>
  <circle cx="245" cy="197" r="9" fill="#6B4D34"/>
  <path d="M227 228c3-14 10-21 18-21 9 0 16 7 19 21" fill="#FFC53D"/>
  <circle cx="74" cy="83" r="15" fill="#FF6B4A"/>
  <circle cx="356" cy="247" r="12" fill="#20C997"/>
</svg>
