<svg preserveAspectRatio="none" width="100%" height="100%" overflow="visible" style="display: block;" viewBox="0 0 25.3452 28" fill="none" xmlns="http://www.w3.org/2000/svg">
<g id="Group 18">
<path id="Rectangle 17" d="M8.57143 14.8617C8.57143 10.2297 12.3264 6.47477 16.9583 6.47477V6.47477C21.5903 6.47477 25.3452 10.2297 25.3452 14.8617V14.8617C25.3452 19.4936 21.5903 23.2486 16.9583 23.2486V23.2486C12.3264 23.2486 8.57143 19.4936 8.57143 14.8617V14.8617Z" fill="url(#paint0_linear_0_15)"/>
<path id="Subtract" d="M15.2861 0C15.5871 0 15.876 0.120149 16.0889 0.333008L22.5215 6.76465C22.7343 6.97745 22.8535 7.2665 22.8535 7.56738V24.292C22.8535 25.2754 22.462 26.2186 21.7666 26.9141C21.1148 27.5656 20.2462 27.9506 19.3301 27.9961L19.1465 28H12.0703C11.483 28 10.9999 27.5543 10.9414 26.9824L10.9355 26.8662C10.9355 26.2393 11.4437 25.7305 12.0703 25.7305H19.1465C19.5275 25.7304 19.8935 25.579 20.1631 25.3096C20.4326 25.0399 20.584 24.6733 20.584 24.292V10.1406C20.584 10.057 20.5163 9.98841 20.4326 9.98828H16.5723C15.5891 9.9881 14.6464 9.5975 13.9512 8.90234C13.2559 8.207 12.8662 7.26364 12.8662 6.28027V2.42188C12.8662 2.33818 12.7975 2.26961 12.7139 2.26953H3.70801C3.32687 2.26953 2.96031 2.42058 2.69043 2.69043C2.42074 2.96012 2.26855 3.32655 2.26855 3.70801V15.9297L2.2627 16.0469C2.20413 16.6187 1.72104 17.0645 1.13379 17.0645C0.546789 17.0642 0.0644255 16.6184 0.00585938 16.0469L0 15.9297V3.70801C0 2.72455 0.390571 1.7813 1.08594 1.08594C1.7813 0.39061 2.72459 0 3.70801 0H15.2861ZM11.458 12.8701C11.9007 12.892 12.3367 12.9902 12.7471 13.1602C13.2163 13.3545 13.6429 13.6391 14.002 13.998C14.3611 14.3571 14.6465 14.7838 14.8408 15.2529C15.0349 15.7217 15.1337 16.2247 15.1338 16.7324C15.1338 17.2402 15.0349 17.7431 14.8408 18.2119C14.6465 18.681 14.361 19.1077 14.002 19.4668L7.55664 25.9072C7.55512 25.9086 7.55322 25.9097 7.55176 25.9111C7.11136 26.3516 6.56754 26.675 5.96973 26.8496C5.96787 26.8502 5.96568 26.8509 5.96387 26.8516L2.27734 27.9277C1.97184 28.0168 1.64677 28.0205 1.33789 27.9414C1.02925 27.8622 0.747629 27.7017 0.522461 27.4766C0.297109 27.2512 0.135754 26.9688 0.0566406 26.6602C-0.0222051 26.3517 -0.017785 26.0272 0.0712891 25.7217L1.14844 22.0332L1.22266 21.8027L1.22168 21.8018C1.4066 21.2931 1.70305 20.8301 2.08691 20.4463L8.5332 13.998C8.89223 13.6391 9.31886 13.3545 9.78809 13.1602C10.2572 12.9659 10.7598 12.8662 11.2676 12.8662L11.458 12.8701ZM11.2676 15.1338C11.0576 15.1338 10.8488 15.1768 10.6553 15.2568C10.4622 15.337 10.2859 15.4544 10.1377 15.6025L3.69238 22.0508C3.69141 22.0517 3.69039 22.0527 3.68945 22.0537C3.52007 22.2238 3.39663 22.4342 3.3291 22.665L2.58008 25.2314C2.56482 25.2845 2.57915 25.3418 2.61816 25.3809C2.65718 25.4199 2.71457 25.4342 2.76758 25.4189L5.33496 24.6699L5.50488 24.6094C5.66989 24.5374 5.82047 24.4345 5.94824 24.3066L12.3975 17.8623L12.4023 17.8564L12.498 17.751L12.5039 17.7451C12.6025 17.6246 12.684 17.4897 12.7441 17.3447C12.8043 17.1994 12.8421 17.0455 12.8574 16.8896L12.8662 16.7324C12.8662 16.5232 12.8243 16.3148 12.7441 16.1211C12.6639 15.9275 12.5457 15.7508 12.3975 15.6025C12.2492 15.4544 12.073 15.337 11.8799 15.2568C11.6864 15.1767 11.4775 15.1338 11.2676 15.1338ZM15.2285 2.81348C15.1721 2.83692 15.134 2.89204 15.1338 2.95312V6.28027C15.1338 6.66164 15.2861 7.02818 15.5557 7.29785C15.8251 7.56722 16.191 7.71953 16.5723 7.71973H19.9004C19.9615 7.71969 20.0165 7.68238 20.04 7.62598C20.0635 7.56932 20.0512 7.50333 20.0078 7.45996L15.3936 2.8457C15.3503 2.80269 15.285 2.79028 15.2285 2.81348Z" fill="black"/>
</g>
<defs>
<linearGradient id="paint0_linear_0_15" x1="16.9583" y1="6.47477" x2="16.9583" y2="23.2486" gradientUnits="userSpaceOnUse">
<stop stop-color="#6FF4C5"/>
<stop offset="1" stop-color="white"/>
</linearGradient>
</defs>
</svg>
