<svg preserveAspectRatio="none" width="100%" height="100%" overflow="visible" style="display: block;" viewBox="0 0 28 27.9925" fill="none" xmlns="http://www.w3.org/2000/svg">
<g id="Group 16">
<path id="Vector" d="M25.8798 18.8591C25.1195 21.0246 23.7826 22.9414 22.0131 24.4029C20.2435 25.8644 18.1086 26.8151 15.8385 27.1525C15.6832 27.4083 15.4648 27.6199 15.2042 27.767C14.9436 27.9141 14.6496 27.9917 14.3503 27.9925H12.9504C12.4863 27.9925 12.0412 27.8081 11.713 27.4799C11.3848 27.1517 11.2004 26.7066 11.2004 26.2425C11.2004 25.7784 11.3848 25.3333 11.713 25.0051C12.0412 24.6769 12.4863 24.4926 12.9504 24.4926H14.3503C14.5926 24.493 14.8322 24.544 15.0536 24.6423C15.275 24.7407 15.4735 24.8842 15.6362 25.0637C17.3881 24.7864 19.0412 24.0702 20.4418 22.9819C21.8423 21.8936 22.9446 20.4686 23.6461 18.8395C23.096 18.7239 22.6024 18.4226 22.2481 17.9862C21.8938 17.5498 21.7003 17.0049 21.7002 16.4428V14.3428C21.7002 13.693 21.9583 13.0699 22.4177 12.6104C22.8772 12.151 23.5003 11.8929 24.1501 11.8929H24.4644C24.2904 9.23579 23.1123 6.74436 21.1689 4.92403C19.2255 3.10371 16.6624 2.0908 13.9997 2.0908C11.3369 2.0908 8.77381 3.10371 6.83042 4.92403C4.88703 6.74436 3.70885 9.23579 3.53491 11.8929H3.8499C4.49967 11.8929 5.12282 12.151 5.58227 12.6104C6.04172 13.0699 6.29984 13.693 6.29984 14.3428V16.4428C6.29984 17.0925 6.04172 17.7157 5.58227 18.1751C5.12282 18.6346 4.49967 18.8927 3.8499 18.8927H2.44994C1.80017 18.8927 1.17702 18.6346 0.71757 18.1751C0.258118 17.7157 8.7022e-09 17.0925 0 16.4428V14.3428C0.000714173 13.8757 0.135176 13.4186 0.387484 13.0255C0.639792 12.6324 0.999394 12.3197 1.42376 12.1246C1.54278 8.86878 2.91983 5.78603 5.26526 3.52477C7.61069 1.26352 10.7417 0 13.9997 0C17.2576 0 20.3886 1.26352 22.734 3.52477C25.0795 5.78603 26.4565 8.86878 26.5755 12.1246C27 12.3196 27.3598 12.6322 27.6122 13.0253C27.8647 13.4184 27.9992 13.8756 28 14.3428V16.4428C27.999 17.034 27.7836 17.6047 27.3937 18.0491C27.0037 18.4935 26.4658 18.7813 25.8798 18.8591ZM2.10065 15.0428V15.7428C2.10065 16.0212 2.21127 16.2883 2.40818 16.4852C2.60509 16.6821 2.87215 16.7927 3.15062 16.7927C3.42909 16.7927 3.69616 16.6821 3.89306 16.4852C4.08997 16.2883 4.20059 16.0212 4.20059 15.7428V15.0428C4.20059 14.7643 4.08997 14.4973 3.89306 14.3003C3.69616 14.1034 3.42909 13.9928 3.15062 13.9928C2.87215 13.9928 2.60509 14.1034 2.40818 14.3003C2.21127 14.4973 2.10065 14.7643 2.10065 15.0428ZM25.9001 15.0428C25.9001 14.7643 25.7894 14.4973 25.5925 14.3003C25.3956 14.1034 25.1285 13.9928 24.8501 13.9928C24.5716 13.9928 24.3045 14.1034 24.1076 14.3003C23.9107 14.4973 23.8001 14.7643 23.8001 15.0428V15.7428C23.8001 16.0212 23.9107 16.2883 24.1076 16.4852C24.3045 16.6821 24.5716 16.7927 24.8501 16.7927C25.1285 16.7927 25.3956 16.6821 25.5925 16.4852C25.7894 16.2883 25.9001 16.0212 25.9001 15.7428V15.0428Z" fill="black"/>
<path id="Vector_2" d="M14.0004 20.2853C14.7431 20.2828 15.477 20.1238 16.1541 19.8185C16.8312 19.5132 17.4364 19.0686 17.9301 18.5137C18.0221 18.4134 18.0933 18.2957 18.1393 18.1675C18.1853 18.0393 18.2053 17.9033 18.1981 17.7673C18.1908 17.6313 18.1565 17.4981 18.0972 17.3755C18.0378 17.253 17.9546 17.1435 17.8524 17.0535C17.6444 16.8697 17.3727 16.7747 17.0955 16.789C16.8183 16.8033 16.5578 16.9256 16.3698 17.1298C16.0763 17.4707 15.7126 17.7443 15.3037 17.9318C14.8948 18.1193 14.4502 18.2164 14.0004 18.2164C13.5505 18.2164 13.1059 18.1193 12.697 17.9318C12.2881 17.7443 11.9245 17.4707 11.6309 17.1298C11.4429 16.9256 11.1824 16.8033 10.9052 16.789C10.628 16.7747 10.3563 16.8697 10.1483 17.0535C10.0461 17.1435 9.96275 17.2529 9.90333 17.3755C9.84391 17.498 9.80957 17.6312 9.80234 17.7673C9.7951 17.9033 9.81511 18.0394 9.86118 18.1675C9.90726 18.2957 9.97847 18.4134 10.0707 18.5137C10.5642 19.0688 11.1694 19.5135 11.8465 19.8187C12.5236 20.124 13.2576 20.283 14.0004 20.2853Z" fill="black"/>
</g>
</svg>
