<svg preserveAspectRatio="none" width="100%" height="100%" overflow="visible" style="display: block;" viewBox="0 0 16 16" fill="none" xmlns="http://www.w3.org/2000/svg">
<g id="exchange" clip-path="url(#clip0_0_4)">
<path id="Union" d="M15.3027 9.57422C15.6896 9.78674 15.8636 10.2941 15.627 10.707L15.5557 10.8125L12.083 15.2139L12.0625 15.2393L12.0391 15.2617L12.0195 15.2783L11.999 15.2979L11.9756 15.3135C11.8902 15.3715 11.7909 15.4003 11.6934 15.4004L10.1582 15.3994L10.0488 15.1748L10.0205 15.1172L9.91113 14.8916L10.0664 14.6953L12.6855 11.375H0.537109L0.419922 11.2578L0.383789 11.2227L0.265625 11.1055V9.74121L0.383789 9.62402L0.419922 9.58887L0.537109 9.47168H15.3027V9.57422ZM5.95215 0.825195L5.98047 0.882812L6.08984 1.1084L5.93457 1.30469L3.31445 4.625H15.4648L15.7344 4.89453V6.25781L15.4648 6.52734L1.09668 6.52832C0.405438 6.52832 0.0190473 5.73183 0.446289 5.18848L3.91797 0.787109L3.93848 0.760742L3.96289 0.739258L3.98145 0.72168L4.00293 0.703125L4.02637 0.686523C4.11175 0.628683 4.2111 0.600586 4.30859 0.600586L5.84277 0.599609L5.95215 0.825195Z" fill="#3DAD7D"/>
</g>
<defs>
<clipPath id="clip0_0_4">
<rect width="16" height="16" fill="white"/>
</clipPath>
</defs>
</svg>
