<!-- Figma node 20023:1670; exported 2026-07-10 -->
<svg width="20" height="20" viewBox="0 0 20 20" fill="none" xmlns="http://www.w3.org/2000/svg">
<g id="md-calendar">
<path id="Vector" d="M5.87548 1.5625C6.06227 1.5625 6.21528 1.71166 6.21528 1.89579L6.215 2.67333H13.7846L13.7847 1.89579C13.7847 1.72453 13.9131 1.58546 14.0816 1.56507L14.1245 1.5625H14.7644C14.9512 1.5625 15.1042 1.71166 15.1042 1.89579V2.67333L16.1115 2.67362C17.3647 2.67362 18.3878 3.66704 18.4358 4.90709L18.4375 4.99826V16.1129C18.4375 17.3974 17.3975 18.4375 16.1115 18.4375H3.88851C2.60477 18.4375 1.5625 17.395 1.5625 16.1129V4.99826C1.5625 3.71368 2.60254 2.67362 3.88851 2.67362L4.89583 2.67333L4.89585 1.89579C4.89585 1.72453 5.0242 1.58546 5.19273 1.56507L5.23564 1.5625H5.87548ZM17.1179 8.57625H2.88167L2.88195 16.2516C2.88195 16.7058 3.29427 17.0852 3.81938 17.1161L3.88849 17.1181H16.1115C16.6714 17.1181 17.1181 16.7276 17.1181 16.2516L17.1179 8.57625ZM4.89542 3.99292L3.88849 3.99305C3.3582 3.99305 2.91468 4.54986 2.88368 5.26486L2.88195 5.34493L2.88167 7.15333H17.1179L17.1181 5.34493C17.1181 4.62174 16.6913 4.03623 16.1698 3.99533L16.1115 3.99305L15.1037 3.99292L15.1041 5.04652C15.1041 5.26652 14.9605 5.4514 14.7643 5.4514H14.1245C13.9307 5.4514 13.7847 5.26456 13.7847 5.04652L13.7846 3.99292H6.215L6.21526 5.04652C6.21526 5.24959 6.09289 5.42275 5.91976 5.44819L5.87546 5.4514H5.23563C5.04185 5.4514 4.89583 5.26457 4.89583 5.04652L4.89542 3.99292Z" fill="#3DAD7D"/>
</g>
</svg>
