<!-- Figma node 20040:4559; exported 2026-07-10 -->
<svg width="35" height="29" viewBox="0 0 35 29" fill="none" xmlns="http://www.w3.org/2000/svg">
<g id="&#230;&#138;&#165;&#229;&#145;&#138;&#230;&#159;&#165;&#232;&#175;&#162;">
<circle id="Ellipse 17" opacity="0.4" cx="26.25" cy="19.625" r="8.5" fill="url(#paint0_linear_20040_4559)"/>
<path id="Vector" d="M13.347 0.268991C15.7569 -0.0896636 18.2069 -0.0896636 20.6167 0.268991C22.3113 0.606448 24.0058 0.876413 25.5987 1.31511C26.1818 1.46303 26.7177 1.75576 27.1563 2.16591C27.5949 2.57607 27.9219 3.09027 28.1067 3.66043C28.7958 5.59518 29.5188 7.51306 30.2757 9.41407C30.4113 9.73465 30.818 10.2071 31.0552 10.1733C31.7014 10.0646 32.3647 10.2121 32.9031 10.5842C33.4415 10.9563 33.8123 11.5235 33.9359 12.1643C34.0214 12.5079 34.0214 12.8669 33.9359 13.2105L32.0041 13.7335C32.1238 14.4031 32.203 15.0792 32.2414 15.7583V25.1058C32.2196 25.671 32.0178 26.2146 31.6652 26.6581C29.8769 27.0016 28.0426 27.0358 26.2426 26.7593C24.9887 25.9663 25.7682 24.6334 25.3615 23.5535H8.89034C8.56838 24.7009 8.38198 26.6244 8.00917 26.7593C6.17047 27.0802 4.28972 27.0802 2.45101 26.7593C2.06085 26.2434 1.84705 25.6166 1.84097 24.9708C1.7393 23.621 1.7393 22.3387 1.7393 21.0226C1.7393 18.576 1.7393 16.1295 1.84097 13.666L0.0447379 13.1936C-0.0149126 12.9212 -0.0149126 12.6392 0.0447379 12.3668C0.553106 11.017 1.23093 9.97087 2.97633 10.1227C3.17967 10.1227 3.56942 9.71778 3.68804 9.41407C4.33582 7.91016 4.90149 6.37249 5.3826 4.80778C5.70082 3.67915 6.35865 2.67468 7.26755 1.92957C8.17645 1.18445 9.29278 0.734474 10.4663 0.640193C11.3983 0.471465 12.3642 0.353355 13.2962 0.201499L13.347 0.268991ZM5.85708 10.6964C13.1645 12.2361 20.7146 12.2361 28.0219 10.6964C27.3949 8.82352 26.768 7.15311 26.3274 5.46582C26.1966 4.82303 25.8433 4.24632 25.3293 3.83623C24.8152 3.42614 24.173 3.20867 23.5144 3.22174C20.0067 3.06988 16.482 2.95177 12.9742 2.91803C11.8282 2.96276 10.691 3.13826 9.58511 3.44108C9.33286 3.49252 9.09348 3.59365 8.88104 3.73853C8.66861 3.88341 8.4874 4.06911 8.34808 4.28473C7.39913 6.32634 6.68741 8.43544 5.85708 10.6964ZM7.29746 18.6604C7.90375 18.693 8.51181 18.6591 9.11064 18.5591C9.34219 18.5059 9.55992 18.4048 9.74968 18.2624C9.93944 18.12 10.097 17.9394 10.2121 17.7324C10.2968 17.4793 9.90708 16.855 9.56817 16.7031C8.18977 16.0601 6.77529 15.4967 5.33177 15.0159C4.62005 14.7796 3.80666 14.8302 3.63721 15.8257C3.29829 17.2937 3.63721 18.1036 4.73867 18.3398C5.6029 18.5085 6.43323 18.5423 7.38218 18.6266L7.29746 18.6604ZM26.8357 18.6604C27.7281 18.597 28.6163 18.4843 29.4962 18.3229C30.7671 18.0361 30.496 17.0068 30.4621 16.1126C30.4282 15.2183 29.9537 14.7965 29.259 14.999C27.519 15.5142 25.8198 16.1571 24.1753 16.9225C23.4297 17.2768 23.7008 18.2554 24.5481 18.441C25.3059 18.5542 26.0698 18.6218 26.8357 18.6435V18.6604Z" fill="url(#paint1_linear_20040_4559)"/>
</g>
<defs>
<linearGradient id="paint0_linear_20040_4559" x1="11.9008" y1="17.6071" x2="24.8649" y2="34.6071" gradientUnits="userSpaceOnUse">
<stop stop-color="#4CE09B"/>
<stop offset="1" stop-color="#07B077"/>
</linearGradient>
<linearGradient id="paint1_linear_20040_4559" x1="-11.6984" y1="10.295" x2="7.22247" y2="41.5386" gradientUnits="userSpaceOnUse">
<stop stop-color="#4CE09B"/>
<stop offset="1" stop-color="#07B077"/>
</linearGradient>
</defs>
</svg>
