<!-- Figma node 20040:4379; exported 2026-07-10; backdrop blur removed for mini-program SVG compatibility -->
<svg width="36" height="36" viewBox="0 0 36 36" fill="none" xmlns="http://www.w3.org/2000/svg">
<g id="icon">
<g id="&#230;&#136;&#191;&#229;&#156;&#176;&#228;&#186;&#167;">
<path id="&#232;&#183;&#175;&#229;&#190;&#132;" fill-rule="evenodd" clip-rule="evenodd" d="M17.0864 33.0002H30.3158C31.7977 32.9992 32.9987 31.7946 32.9998 30.3083V13.9228C32.9994 12.6868 32.1598 11.6099 30.9639 11.3115L20.4166 8.67203C19.6158 8.472 18.7677 8.65293 18.1173 9.16255C17.4669 9.67216 17.0867 10.4537 17.0864 11.2815V33.0002Z" fill="#FFC069"/>
<path id="&#232;&#183;&#175;&#229;&#190;&#132;_2" fill-rule="evenodd" clip-rule="evenodd" d="M23.2185 33H6.40867C4.52611 33 3 31.4694 3 29.5813V8.77674C3.00057 7.20802 4.06557 5.84099 5.58312 5.46106L18.9824 2.10228C20.002 1.84642 21.0822 2.07654 21.91 2.72594C22.7378 3.37534 23.2206 4.37141 23.2185 5.42546V33Z" fill="url(#paint0_linear_20040_4379)"/>
<path id="&#229;&#189;&#162;&#231;&#138;&#182;&#231;&#187;&#147;&#229;&#144;&#136;" d="M13.2026 8.80762C14.0309 8.80783 14.7024 9.47579 14.7026 10.2998V12.333H16.7378C17.563 12.333 18.2319 13.0044 18.2319 13.832C18.2319 14.6596 17.563 15.3301 16.7378 15.3301H14.7026V17.3633C14.7026 18.1875 14.031 18.8562 13.2026 18.8564C12.3741 18.8564 11.7017 18.1876 11.7017 17.3633V15.3301H9.6665C8.84135 15.33 8.17243 14.6596 8.17236 13.832C8.17236 13.0044 8.84131 12.333 9.6665 12.333H11.7017V10.2998C11.7019 9.47566 12.3742 8.80762 13.2026 8.80762Z" fill="white"/>
<path id="&#229;&#189;&#162;&#231;&#138;&#182;&#231;&#187;&#147;&#229;&#144;&#136;_2" d="M15.5913 26.4482C16.0354 26.4483 16.4028 26.8168 16.4028 27.2617C16.4027 27.7064 16.0508 28.074 15.6069 28.0742H10.7671C10.3231 28.0741 9.95572 27.7065 9.95557 27.2617C9.95557 26.8168 10.323 26.4483 10.7671 26.4482H15.5913ZM15.5913 21.8457C16.0354 21.8458 16.4028 22.2143 16.4028 22.6592C16.4026 23.1038 16.0507 23.4714 15.6069 23.4717H10.7671C10.3232 23.4716 9.95576 23.1039 9.95557 22.6592C9.95557 22.2143 10.323 21.8458 10.7671 21.8457H15.5913Z" fill="white"/>
</g>
</g>
<defs>
<linearGradient id="paint0_linear_20040_4379" x1="-3.51315" y1="12.8548" x2="19.5303" y2="34.3155" gradientUnits="userSpaceOnUse">
<stop stop-color="#FFC042"/>
<stop offset="1" stop-color="#FA7414"/>
</linearGradient>
</defs>
</svg>
