<!-- Figma node 20024:1714; exported 2026-07-13 -->
<svg preserveAspectRatio="none" width="100%" height="100%" overflow="visible" style="display: block;" viewBox="0 0 20 20" fill="none" xmlns="http://www.w3.org/2000/svg">
<g id="location-o">
<path id="Vector" d="M10.2017 0.75C14.0404 0.75 17.1533 3.79417 17.1533 7.55C17.1533 10.9042 15.1933 14.6121 11.2792 18.6763L11.0596 18.9021C10.5738 19.375 9.79625 19.3646 9.32292 18.8783C5.27625 14.7204 3.25 10.945 3.25 7.55C3.25 3.79417 6.36292 0.75 10.2017 0.75ZM10.2017 2.06125C7.08458 2.06125 4.56167 4.52083 4.56167 7.55C4.56167 10.5154 6.39792 13.9396 10.0712 17.7654L10.2029 17.9017L10.3354 17.7662C13.9442 14.0192 15.7783 10.6479 15.8408 7.70458L15.8425 7.55C15.8425 4.52125 13.3196 2.06125 10.2025 2.06125H10.2017ZM10.2017 5.32875C11.8283 5.32875 13.1467 6.6475 13.1467 8.27375C13.1467 9.9 11.8279 11.2187 10.2017 11.2187C8.575 11.2187 7.25667 9.9 7.25667 8.27375C7.25667 6.6475 8.57542 5.32875 10.2017 5.32875ZM10.2017 6.64C9.29958 6.64 8.56792 7.37125 8.56792 8.27375C8.56792 9.17625 9.29917 9.9075 10.2017 9.9075C11.1037 9.9075 11.8354 9.17625 11.8354 8.27375C11.8354 7.37125 11.1042 6.64 10.2017 6.64Z" fill="var(--fill-0, #3DAD7D)"/>
</g>
</svg>
