<!-- Figma node 20024:1731; exported 2026-07-13 -->
<svg preserveAspectRatio="none" width="100%" height="100%" overflow="visible" style="display: block;" viewBox="0 0 18.3335 20" fill="none" xmlns="http://www.w3.org/2000/svg">
<g id="&#229;&#174;&#154;&#228;&#189;&#141;">
<path id="&#229;&#189;&#162;&#231;&#138;&#182;" d="M9.26074 0.5C13.6477 0.50003 17.833 4.20915 17.833 8.53125C17.8329 10.2489 17.1353 11.895 16.2002 13.3379C15.267 14.7778 14.122 15.9777 13.2832 16.7979C12.4697 17.5933 11.5033 18.2827 10.7002 18.7734C10.2995 19.0182 9.94528 19.2101 9.67871 19.3389C9.54479 19.4036 9.43819 19.4499 9.3623 19.4785C9.3334 19.4894 9.312 19.4957 9.29785 19.5H9.27051C9.12199 19.4968 8.86382 19.4309 8.49414 19.2598C8.13545 19.0937 7.71146 18.8476 7.24609 18.5283C6.31561 17.8898 5.24745 16.9812 4.23828 15.9072C2.1972 13.7349 0.500117 10.9988 0.5 8.53125C0.5 3.5521 4.8316 0.5 9.26074 0.5Z" fill="var(--fill-0, #FC2A30)" stroke="var(--stroke-0, white)"/>
<path id="&#232;&#183;&#175;&#229;&#190;&#132;" d="M9.14818 12.5675C6.81651 12.5675 4.90877 10.6933 4.90877 8.40266C4.90877 6.11203 6.81651 4.23787 9.14818 4.23787C11.4799 4.23787 13.3876 6.11203 13.3876 8.40266C13.3876 10.6933 11.4799 12.5675 9.14818 12.5675Z" fill="var(--fill-0, white)"/>
</g>
</svg>
