<!-- Figma node 20040:4500; exported 2026-07-10 -->
<svg width="36" height="36" viewBox="0 0 36 36" fill="none" xmlns="http://www.w3.org/2000/svg">
<g id="01.&#229;&#159;&#186;&#231;&#161;&#128;&#230;&#142;&#167;&#228;&#187;&#182;/01.Base/02.&#229;&#155;&#190;&#230;&#160;&#135;/12.&#228;&#184;&#170;&#230;&#128;&#167;&#229;&#140;&#150;-&#230;&#151;&#160;&#232;&#131;&#140;&#230;&#153;&#175;/&#229;&#164;&#177;&#231;&#137;&#169;&#230;&#139;&#155;&#233;&#162;&#134;">
<g id="&#230;&#138;&#165;&#229;&#145;&#138;&#230;&#159;&#165;&#232;&#175;&#162;">
<path id="&#229;&#189;&#162;&#231;&#138;&#182;" fill-rule="evenodd" clip-rule="evenodd" d="M30.0769 12H16.9231C15.3154 12 14 13.3303 14 14.9562V30.0438C14 31.6697 15.3154 33 16.9231 33H30.0769C31.6846 33 33 31.6697 33 30.0438V14.9562C33 13.3303 31.6846 12 30.0769 12Z" fill="#FFD591"/>
<path id="&#229;&#189;&#162;&#231;&#138;&#182;_2" fill-rule="evenodd" clip-rule="evenodd" d="M25.8462 3H7.15385C4.86923 3 3 4.90043 3 7.22318V28.7768C3 31.0996 4.86923 33 7.15385 33H25.8462C28.1308 33 30 31.0996 30 28.7768V7.22318C30 4.90043 28.1308 3 25.8462 3Z" fill="url(#paint0_linear_20040_4500)"/>
<g id="&#231;&#155;&#145;&#230;&#142;&#167;">
<g id="&#229;&#164;&#177;&#231;&#137;&#169;&#230;&#139;&#155;&#233;&#162;&#134;">
<path id="&#229;&#189;&#162;&#231;&#138;&#182;_3" fill-rule="evenodd" clip-rule="evenodd" d="M14.1466 9.5C15.0577 9.5 15.9313 9.71576 16.7387 10.1392C17.3592 10.464 17.9216 10.911 18.3891 11.4479L18.4164 11.4807L19.3697 10.5072C19.5289 10.3468 19.7321 10.2475 19.9509 10.2224L20.0615 10.2161C20.3238 10.2161 20.5694 10.3195 20.7543 10.5082L23.6055 13.4201C23.9848 13.8072 23.9848 14.4354 23.6055 14.8226L23.5504 14.8775L23.6229 14.8816C24.0835 14.9291 24.4484 15.3013 24.495 15.7683L24.5 15.8697V25.5067C24.5 26.0546 24.0636 26.5 23.5228 26.5H8.47724C7.93644 26.5 7.5 26.0546 7.5 25.5067V15.8697C7.5 15.3561 7.88359 14.9325 8.37714 14.8816L8.49074 14.876L8.4952 14.8097C8.59655 13.5283 9.10857 12.3314 9.96339 11.3793L10.1389 11.1922C11.2092 10.1019 12.6341 9.5 14.1466 9.5ZM17.8807 16.587C18.4215 16.587 18.8579 17.0324 18.8579 17.5803V17.8429C18.8579 18.3907 18.4215 18.8362 17.8807 18.8362H14.0998C13.559 18.8362 13.1226 18.3907 13.1226 17.8429V17.5803C13.1226 17.0324 13.559 16.587 14.0998 16.587H17.8807ZM17.8807 17.3802H14.0998C13.9955 17.3802 13.9077 17.4698 13.9077 17.5803V17.8429C13.9077 17.9534 13.9955 18.043 14.0998 18.043H17.8807C17.985 18.043 18.0728 17.9534 18.0728 17.8429V17.5803C18.0728 17.4698 17.985 17.3802 17.8807 17.3802ZM19.9279 11.0672L16.1953 14.876L22.371 14.8764C22.404 14.8764 22.4358 14.8675 22.4645 14.8503L22.5048 14.8181L23.0521 14.2616C23.0881 14.2258 23.1088 14.1752 23.1088 14.1213C23.1088 14.0679 23.0883 14.0181 23.0503 13.9792L20.1971 11.0672C20.1226 10.9912 20.0024 10.9912 19.9279 11.0672ZM14.1466 10.2932C12.8437 10.2932 11.6185 10.81 10.6978 11.7496C9.87508 12.5875 9.38059 13.6732 9.28171 14.8461L9.27986 14.876H15.0899L17.8613 12.0468L17.8222 11.9986C17.4671 11.5839 17.044 11.2287 16.5782 10.9541L16.376 10.8414C15.6822 10.4778 14.9321 10.2932 14.1466 10.2932Z" fill="white"/>
</g>
</g>
</g>
</g>
<defs>
<linearGradient id="paint0_linear_20040_4500" x1="-5.69771" y1="13.5047" x2="15.9733" y2="41.355" gradientUnits="userSpaceOnUse">
<stop stop-color="#FFC042"/>
<stop offset="1" stop-color="#FA7414"/>
</linearGradient>
</defs>
</svg>
