<!-- Figma node 20040:4537; exported 2026-07-10 -->
<svg width="36" height="36" viewBox="0 0 36 36" fill="none" xmlns="http://www.w3.org/2000/svg">
<g id="01.&#229;&#159;&#186;&#231;&#161;&#128;&#230;&#142;&#167;&#228;&#187;&#182;/01.Base/02.&#229;&#155;&#190;&#230;&#160;&#135;/12.&#228;&#184;&#170;&#230;&#128;&#167;&#229;&#140;&#150;-&#230;&#151;&#160;&#232;&#131;&#140;&#230;&#153;&#175;/&#229;&#145;&#152;&#229;&#183;&#165;&#229;&#174;&#191;&#232;&#136;&#141;&#228;&#191;&#161;&#230;&#129;&#175;">
<g id="&#229;&#136;&#171;&#229;&#162;&#133;&#229;&#140;&#186;">
<path id="&#229;&#189;&#162;&#231;&#138;&#182;" opacity="0.727469" fill-rule="evenodd" clip-rule="evenodd" d="M18.397 9.24414V30.2003H31.6405V17.3024C31.6402 16.5901 31.2455 15.9369 30.6159 15.607L18.397 9.24414Z" fill="url(#paint0_linear_20040_4537)"/>
<path id="&#229;&#189;&#162;&#231;&#138;&#182;&#231;&#187;&#147;&#229;&#144;&#136;" d="M23.3203 23.8535C23.8885 24.1359 24.4487 24.2783 25.0009 24.2783C25.5549 24.2783 26.1158 24.136 26.6826 23.8535H26.9667C27.5334 23.8683 28.0396 24.0656 28.4833 24.4443C28.9271 24.8232 29.2578 25.3413 29.4765 25.9961C29.5338 26.2343 29.4871 26.4562 29.3339 26.665C29.1807 26.874 28.9956 26.9853 28.7753 27H21.2236C21.005 27 20.8201 26.9067 20.6669 26.7207C20.5137 26.5346 20.4654 26.2931 20.5244 25.9961C20.684 25.3413 21.002 24.8232 21.4745 24.4443C21.9487 24.0656 22.4694 23.8682 23.0361 23.8535H23.3203ZM24.9999 17C25.8569 17.0311 26.5558 17.3366 27.0937 17.916C27.6332 18.4956 27.9103 19.1879 27.9247 19.9912C27.9104 20.8697 27.6175 21.5887 27.0507 22.1455C26.4841 22.7021 25.7995 22.9891 24.9999 23.0039C24.2001 22.9729 23.5165 22.6676 22.9482 22.0879C22.3799 21.5083 22.0896 20.8082 22.0751 19.9902C22.0895 19.1868 22.3672 18.4937 22.9052 17.9141C23.4432 17.333 24.1428 17.0294 24.9999 17Z" fill="white"/>
<path id="&#229;&#189;&#162;&#231;&#138;&#182;_2" fill-rule="evenodd" clip-rule="evenodd" d="M32.1377 29.2675H19.3091V5.12093C19.3062 4.38428 18.9238 3.70149 18.298 3.31559C17.6723 2.92969 16.8921 2.89549 16.2352 3.22516L5.58656 8.67613C4.87721 9.04057 4.43109 9.77264 4.43128 10.5719V29.2675H3.95994C3.27223 29.2313 2.62073 29.5787 2.26603 30.1706C1.91132 30.7625 1.91132 31.5024 2.26603 32.0944C2.62073 32.6863 3.27223 33.0336 3.95994 32.9974H32.1377C33.1662 32.9974 34 32.1613 34 31.1299C34 30.0985 33.1662 29.2624 32.1377 29.2624V29.2675Z" fill="url(#paint1_linear_20040_4537)"/>
<path id="&#229;&#189;&#162;&#231;&#138;&#182;&#231;&#187;&#147;&#229;&#144;&#136;_2" d="M14.2188 17.3271C14.7677 17.3271 15.2752 17.6211 15.5498 18.0977C15.8244 18.5745 15.8244 19.1628 15.5498 19.6396C15.2752 20.1163 14.7677 20.4102 14.2188 20.4102H9.31641C8.4677 20.4102 7.77952 19.7202 7.7793 18.8691C7.7793 18.0179 8.46756 17.3271 9.31641 17.3271H14.2188ZM14.2188 12.2207C15.0675 12.2207 15.7557 12.9106 15.7559 13.7617C15.7559 14.6129 15.0676 15.3037 14.2188 15.3037H9.31641C8.46756 15.3037 7.7793 14.6129 7.7793 13.7617C7.77944 12.9106 8.46765 12.2207 9.31641 12.2207H14.2188Z" fill="white"/>
</g>
</g>
<defs>
<linearGradient id="paint0_linear_20040_4537" x1="17.1647" y1="9.24414" x2="17.1647" y2="30.2003" gradientUnits="userSpaceOnUse">
<stop stop-color="#2DBFE3"/>
<stop offset="1" stop-color="#0EB1DA"/>
</linearGradient>
<linearGradient id="paint1_linear_20040_4537" x1="-0.977568" y1="3" x2="-0.977568" y2="33" gradientUnits="userSpaceOnUse">
<stop stop-color="#2DBFE3"/>
<stop offset="1" stop-color="#0EB1DA"/>
</linearGradient>
</defs>
</svg>
