<!-- Figma node 20040:4465; exported 2026-07-10 -->
<svg width="36" height="36" viewBox="0 0 36 36" fill="none" xmlns="http://www.w3.org/2000/svg">
<g id="01.&#229;&#159;&#186;&#231;&#161;&#128;&#230;&#142;&#167;&#228;&#187;&#182;/01.Base/02.&#229;&#155;&#190;&#230;&#160;&#135;/12.&#228;&#184;&#170;&#230;&#128;&#167;&#229;&#140;&#150;-&#230;&#151;&#160;&#232;&#131;&#140;&#230;&#153;&#175;/&#230;&#175;&#143;&#230;&#151;&#165;&#229;&#183;&#165;&#228;&#189;&#156;&#233;&#135;&#143;">
<g id="&#230;&#138;&#165;&#229;&#145;&#138;&#230;&#159;&#165;&#232;&#175;&#162;">
<path id="&#229;&#189;&#162;&#231;&#138;&#182;" opacity="0.2" fill-rule="evenodd" clip-rule="evenodd" d="M30.0769 12H16.9231C15.3154 12 14 13.3303 14 14.9562V30.0438C14 31.6697 15.3154 33 16.9231 33H30.0769C31.6846 33 33 31.6697 33 30.0438V14.9562C33 13.3303 31.6846 12 30.0769 12Z" fill="url(#paint0_linear_20040_4465)"/>
<path id="&#229;&#189;&#162;&#231;&#138;&#182;_2" fill-rule="evenodd" clip-rule="evenodd" d="M25.8462 3H7.15385C4.86923 3 3 4.90043 3 7.22318V28.7768C3 31.0996 4.86923 33 7.15385 33H25.8462C28.1308 33 30 31.0996 30 28.7768V7.22318C30 4.90043 28.1308 3 25.8462 3Z" fill="url(#paint1_linear_20040_4465)"/>
<g id="icon">
<g id="xsy-daily-color">
<path id="&#229;&#189;&#162;&#231;&#138;&#182;_3" fill-rule="evenodd" clip-rule="evenodd" d="M23.3056 17.0785C23.5146 17.0785 23.6851 17.248 23.6851 17.4557V18.1098C23.5314 19.3131 23.2527 20.5115 22.7579 21.3399C21.6386 23.2164 18.7274 24.6846 17.1133 25.3125H9.83775C8.99706 25.3125 8.3125 24.6345 8.3125 23.7965V17.4557C8.3125 17.248 8.48304 17.0785 8.69201 17.0785H23.3056ZM18.211 20.1248H17.416L18.4248 22.5933L17.9516 23.6772H18.7394L20.1422 20.1248H19.3471L18.7923 21.6742L18.211 20.1248ZM14.6345 19.1292H13.9043V20.3062C13.7313 20.1462 13.5056 20.0579 13.2702 20.0579C12.8882 20.0579 12.5832 20.1988 12.367 20.4757C12.1677 20.7216 12.0668 21.0415 12.0668 21.4235C12.0668 21.8174 12.1701 22.1445 12.3718 22.3951C12.5928 22.6721 12.9051 22.8129 13.299 22.8129C13.556 22.8129 13.7722 22.7485 13.9427 22.6196V22.7461H14.6345V19.1292ZM16.2174 20.0531C15.8787 20.0531 15.6217 20.1128 15.4295 20.2322C15.1941 20.3683 15.0452 20.5879 14.9876 20.8839L14.9684 20.989L15.6937 21.0463L15.713 20.9651C15.7322 20.872 15.7898 20.7908 15.8715 20.7431C15.946 20.6977 16.0468 20.6762 16.1838 20.6762C16.484 20.6762 16.6137 20.7884 16.6137 21.0558L16.1717 21.0702C15.7946 21.0797 15.4944 21.1633 15.2806 21.3137C15.0404 21.476 14.9179 21.7147 14.9179 22.0227C14.9131 22.2423 15.0092 22.4524 15.1773 22.5933C15.3431 22.7389 15.5664 22.8105 15.8427 22.8105C16.0468 22.8129 16.2486 22.7747 16.436 22.6936C16.5152 22.6578 16.5873 22.6148 16.6521 22.5623V22.7461H17.3439L17.3391 21.094C17.3391 20.7741 17.255 20.5234 17.0869 20.3516C16.8995 20.1534 16.6065 20.0531 16.2174 20.0531ZM16.215 21.6527L16.6089 21.6407V21.6646C16.6137 21.8174 16.544 21.963 16.4263 22.0585C16.3014 22.1636 16.1453 22.2161 15.9628 22.2161C15.8811 22.2185 15.7994 22.1946 15.7322 22.1445C15.6865 22.1134 15.6601 22.0633 15.6625 22.0084L15.6655 21.9545C15.6821 21.8164 15.7784 21.6611 16.215 21.6527ZM13.3999 20.681C13.5392 20.681 13.6713 20.7455 13.7554 20.8577C13.8659 20.9938 13.9235 21.18 13.9235 21.4139V21.4521C13.9235 21.6694 13.8779 21.846 13.789 21.9821C13.6953 22.1206 13.556 22.1898 13.3807 22.1898C13.1717 22.1898 13.0252 22.1206 12.9339 21.9774C12.8522 21.8556 12.8138 21.6742 12.8138 21.4235C12.8138 21.1776 12.857 21.0009 12.9435 20.8815C13.0396 20.7455 13.1885 20.681 13.3999 20.681ZM11.2549 11.9886V13.9391C11.2549 14.481 11.8002 15.023 12.3454 15.023C12.8907 15.023 13.4359 14.5885 13.4359 13.9391V11.9886H18.5617V13.9391C18.5617 14.481 18.9989 15.023 19.6522 15.023C20.1974 15.023 20.7427 14.5885 20.7427 13.9391V11.9886H22.1598C23.0005 11.9886 23.6851 12.6666 23.6875 13.5046V15.837C23.6875 16.0447 23.517 16.2143 23.308 16.2143H8.69201C8.48304 16.2143 8.3125 16.0447 8.3125 15.837V13.5046C8.3125 12.6666 8.99466 11.9886 9.83775 11.9886H11.2549ZM19.6522 10.6875C20.0869 10.6875 20.5241 11.0122 20.5241 11.5541V13.9367C20.5241 14.3712 20.0894 14.8033 19.6522 14.8033C19.215 14.8033 18.7779 14.4786 18.7803 13.9367V11.5541C18.7803 11.1196 19.1069 10.6875 19.6522 10.6875ZM12.3478 10.6875C12.7826 10.6875 13.2197 11.0122 13.2197 11.5541V13.9367C13.1092 14.3712 12.7826 14.8033 12.2373 14.8033C11.8002 14.8033 11.4735 14.3712 11.4759 13.9367V11.5541C11.4759 11.1196 11.8026 10.6875 12.3478 10.6875Z" fill="white"/>
<path id="&#232;&#183;&#175;&#229;&#190;&#132;" fill-rule="evenodd" clip-rule="evenodd" d="M17.1133 25.3125H22.1574C23.0005 25.3125 23.6851 24.6345 23.6851 23.7966V18.1099C23.5313 19.3131 23.2527 20.5116 22.7579 21.34C21.6386 23.2164 18.7274 24.6847 17.1133 25.3125Z" fill="white" fill-opacity="0.4"/>
</g>
</g>
</g>
</g>
<defs>
<linearGradient id="paint0_linear_20040_4465" x1="7.46268" y1="20.0072" x2="23.8293" y2="39.425" gradientUnits="userSpaceOnUse">
<stop stop-color="#02D4B7"/>
<stop offset="1" stop-color="#01BEA2"/>
</linearGradient>
<linearGradient id="paint1_linear_20040_4465" x1="-6.28987" y1="14.4389" x2="17.1115" y2="42.0568" gradientUnits="userSpaceOnUse">
<stop stop-color="#02D4B7"/>
<stop offset="1" stop-color="#01BEA2"/>
</linearGradient>
</defs>
</svg>
