<!-- Figma node 20023:1552; exported 2026-07-10 -->
<svg width="24" height="24" viewBox="0 0 24 24" fill="none" xmlns="http://www.w3.org/2000/svg">
<g id="md-save">
<path id="Vector" fill-rule="evenodd" clip-rule="evenodd" d="M16.7007 2L16.8442 2.0594L16.9381 2.09128L17.0246 2.12762C17.11 2.16695 17.1917 2.21516 17.2681 2.27137L17.3428 2.33021L17.4314 2.41173L21.589 6.56934L21.6586 6.64418L21.7208 6.72137C21.8591 6.9061 21.9495 7.12231 21.9841 7.35132L21.9955 7.4502L22 7.5639V21.4113L21.9969 21.4729L21.9871 21.5355C21.9391 21.7612 21.7612 21.9391 21.5346 21.9871L21.4716 21.9969L21.41 22H2.58875L2.52714 21.9968L2.46446 21.987C2.23876 21.9391 2.06092 21.7612 2.01288 21.5345L2.00307 21.4716L2 21.41V2.58875L2.00316 2.52714L2.01296 2.46446C2.06093 2.23876 2.23884 2.06092 2.46545 2.01288L2.5284 2.00307L2.59001 2H16.7007ZM7.08978 3.58665H3.61171L3.58665 20.3883L20.3883 20.4134L20.4134 7.64729L16.9279 4.1515L16.9273 4.18646L16.9102 4.16922L16.9097 5.38144L16.8852 7.08978L16.882 7.16169C16.8501 7.51712 16.584 7.80701 16.2351 7.87027L16.1642 7.87985L16.0907 7.88311L7.90815 7.88309L7.83624 7.87988C7.48082 7.84799 7.19093 7.58197 7.12767 7.23298L7.11808 7.16213L7.11482 7.08866L7.11485 3.61171L7.08978 3.58665ZM12 10.2098C14.0331 10.2098 15.6827 11.8593 15.6827 13.8925C15.6827 15.9256 14.0331 17.5751 12 17.5751C9.96687 17.5751 8.31734 15.9256 8.31734 13.8925C8.31734 11.8593 9.96687 10.2098 12 10.2098ZM12 11.8925C10.8958 11.8925 10 12.7883 10 13.8925C10 14.9966 10.8958 15.8925 12 15.8925C13.1042 15.8925 14 14.9966 14 13.8925C14 12.7883 13.1042 11.8925 12 11.8925ZM15.2735 3.58665H8.72652L8.70146 6.27141L15.2735 6.29647L15.2985 3.61171L15.2735 3.58665Z" fill="#3DAD7D"/>
</g>
</svg>
