<!-- Figma node 20040:4434; exported 2026-07-10 -->
<svg width="36" height="36" viewBox="0 0 36 36" fill="none" xmlns="http://www.w3.org/2000/svg">
<g id="icon">
<g id="&#231;&#137;&#169;&#229;&#147;&#129;&#231;&#148;&#179;&#232;&#175;&#183;">
<path id="&#232;&#183;&#175;&#229;&#190;&#132;" d="M25.4629 16.7049L23.3335 16.1961L24.7597 11.4478L26.8891 11.9566L25.4629 16.7049Z" fill="white"/>
<path id="&#229;&#189;&#162;&#231;&#138;&#182;&#231;&#187;&#147;&#229;&#144;&#136;" fill-rule="evenodd" clip-rule="evenodd" d="M4.90862 7.19062L17.2553 4.04421L17.2553 4.0442C18.0733 3.85057 18.9169 4.31043 19.1469 5.08494L22.4445 16.7751L7.13256 20.6476L3.835 8.95746C3.60494 8.20716 4.09062 7.40845 4.90862 7.19062ZM8.58965 18.2757L19.9394 15.3955L17.3064 6.05307L5.95671 8.93325L8.58965 18.2757ZM9.96628 11.7035L15.4511 10.3055C15.9919 10.1583 16.3266 9.61873 16.1721 9.10368C16.0176 8.58863 15.4511 8.26979 14.9103 8.41695L9.42552 9.81494C8.88477 9.9621 8.55001 10.5017 8.70451 11.0167C8.85901 11.5318 9.42552 11.8506 9.96628 11.7035ZM10.8675 14.9164L16.3524 13.5184C16.8931 13.3712 17.2279 12.8317 17.0734 12.3166C16.9189 11.8016 16.3524 11.4827 15.8116 11.6299L10.3268 13.0279C9.78603 13.175 9.45127 13.7146 9.60577 14.2297C9.76028 14.7447 10.3268 15.0635 10.8675 14.9164Z" fill="url(#paint0_linear_20040_4434)"/>
<path id="&#229;&#189;&#162;&#231;&#138;&#182;" fill-rule="evenodd" clip-rule="evenodd" d="M32.3595 7.52629L30.4383 7.00695C30.7128 5.94354 30.089 4.8554 29.0161 4.58337L27.0948 4.06403C26.0219 3.79199 24.9241 4.41025 24.6496 5.47366L23.6266 9.30687L21.9549 15.5142L21.5557 16.9239L27.3443 18.4571L27.7436 17.0228L29.4153 10.8154L29.9393 8.91119L30.9124 9.15849L30.1389 12.0272C29.9892 12.5466 30.3135 13.0906 30.8375 13.239C31.3615 13.3874 31.9104 13.0659 32.0601 12.5466L33.0831 8.71335C33.2079 8.19401 32.9085 7.64994 32.3595 7.52629L32.3595 7.52629ZM24.4001 14.1046L25.0488 11.7057L26.9701 12.2251L26.3214 14.6239L24.4001 14.1046ZM25.5479 9.80152L26.5709 5.9683L28.4921 6.48764L27.4691 10.3209L25.5479 9.80152Z" fill="url(#paint1_linear_20040_4434)"/>
<path id="&#229;&#189;&#162;&#231;&#138;&#182;_2" fill-rule="evenodd" clip-rule="evenodd" d="M32.4762 13.6001H3.52381C2.68571 13.6001 2 14.2714 2 15.092V18.0758C2 18.8963 2.68571 19.5677 3.52381 19.5677H4.28572V29.0163C4.28572 30.6574 5.65714 32.0001 7.33333 32.0001H28.6667C30.3429 32.0001 31.7143 30.6574 31.7143 29.0163V19.5677H32.4762C33.3143 19.5677 34 18.8963 34 18.0758V15.092C34 14.2714 33.3143 13.6001 32.4762 13.6001H32.4762Z" fill="url(#paint2_linear_20040_4434)"/>
<rect id="&#231;&#159;&#169;&#229;&#189;&#162;" x="8.49268" y="19.543" width="19.0145" height="3.2" rx="0.927536" fill="white"/>
</g>
</g>
<defs>
<linearGradient id="paint0_linear_20040_4434" x1="-0.883654" y1="8.94443" x2="8.43283" y2="26.5306" gradientUnits="userSpaceOnUse">
<stop stop-color="#4CBCFC"/>
<stop offset="1" stop-color="#2D7FFA"/>
</linearGradient>
<linearGradient id="paint1_linear_20040_4434" x1="18.67" y1="8.29385" x2="28.0336" y2="20.8935" gradientUnits="userSpaceOnUse">
<stop stop-color="#4CBCFC"/>
<stop offset="1" stop-color="#2D7FFA"/>
</linearGradient>
<linearGradient id="paint2_linear_20040_4434" x1="-5.99112" y1="19.065" x2="1.6228" y2="41.3568" gradientUnits="userSpaceOnUse">
<stop stop-color="#4CBCFC"/>
<stop offset="1" stop-color="#2D7FFA"/>
</linearGradient>
</defs>
</svg>
